<svg width="320" height="611" viewBox="0 0 320 611" fill="none" xmlns="http://www.w3.org/2000/svg">
<path d="M76.1281 583.398C76.3174 582.443 77.6826 582.443 77.8719 583.398L79.5317 591.769C79.6017 592.122 79.8777 592.398 80.2308 592.468L88.6024 594.128C89.557 594.317 89.557 595.683 88.6024 595.872L80.2308 597.532C79.8777 597.602 79.6017 597.878 79.5317 598.231L77.8719 606.602C77.6826 607.557 76.3174 607.557 76.1281 606.602L74.4683 598.231C74.3983 597.878 74.1223 597.602 73.7692 597.532L65.3976 595.872C64.443 595.683 64.443 594.317 65.3976 594.128L73.7692 592.468C74.1223 592.398 74.3983 592.122 74.4683 591.769L76.1281 583.398Z" fill="white" fill-opacity="0.8"/>
<path d="M28.3652 481.246C28.7201 479.456 31.2799 479.456 31.6348 481.246L34.747 496.942C34.8783 497.604 35.3958 498.122 36.0577 498.253L51.7544 501.365C53.5445 501.72 53.5445 504.28 51.7544 504.635L36.0577 507.747C35.3958 507.878 34.8783 508.396 34.747 509.058L31.6348 524.754C31.2799 526.544 28.7201 526.544 28.3652 524.754L25.253 509.058C25.1217 508.396 24.6042 507.878 23.9423 507.747L8.24558 504.635C6.45554 504.28 6.45553 501.72 8.24557 501.365L23.9423 498.253C24.6042 498.122 25.1217 497.604 25.253 496.942L28.3652 481.246Z" fill="white" fill-opacity="0.8"/>
<path d="M188.712 506.973C188.883 506.11 190.117 506.11 190.288 506.973L193.78 524.588C193.844 524.907 194.093 525.156 194.412 525.22L212.027 528.712C212.89 528.883 212.89 530.117 212.027 530.288L194.412 533.78C194.093 533.844 193.844 534.093 193.78 534.412L190.288 552.027C190.117 552.89 188.883 552.89 188.712 552.027L185.22 534.412C185.156 534.093 184.907 533.844 184.588 533.78L166.973 530.288C166.11 530.117 166.11 528.883 166.973 528.712L184.588 525.22C184.907 525.156 185.156 524.907 185.22 524.588L188.712 506.973Z" fill="#01BEF8"/>
<path d="M303.519 89.9473C303.732 88.8733 305.268 88.8733 305.481 89.9473L306.935 97.279C307.013 97.6762 307.324 97.9867 307.721 98.0654L315.053 99.5191C316.127 99.732 316.127 101.268 315.053 101.481L307.721 102.935C307.324 103.013 307.013 103.324 306.935 103.721L305.481 111.053C305.268 112.127 303.732 112.127 303.519 111.053L302.065 103.721C301.987 103.324 301.676 103.013 301.279 102.935L293.947 101.481C292.873 101.268 292.873 99.732 293.947 99.5191L301.279 98.0654C301.676 97.9867 301.987 97.6762 302.065 97.279L303.519 89.9473Z" fill="#01BEF8"/>
<path d="M33.0191 4.94734C33.232 3.87332 34.768 3.87332 34.9809 4.94734L37.5101 17.7035C37.5888 18.1007 37.8993 18.4112 38.2965 18.4899L51.0527 21.0191C52.1267 21.232 52.1267 22.768 51.0527 22.9809L38.2965 25.5101C37.8993 25.5888 37.5888 25.8993 37.5101 26.2965L34.9809 39.0527C34.768 40.1267 33.232 40.1267 33.0191 39.0527L30.4899 26.2965C30.4112 25.8993 30.1007 25.5888 29.7035 25.5101L16.9473 22.9809C15.8733 22.768 15.8733 21.232 16.9473 21.0191L29.7035 18.4899C30.1007 18.4112 30.4112 18.1007 30.4899 17.7035L33.0191 4.94734Z" fill="#01BEF8"/>
<path d="M302.519 490.947C302.732 489.873 304.268 489.873 304.481 490.947L306.1 499.114C306.179 499.511 306.489 499.821 306.886 499.9L315.053 501.519C316.127 501.732 316.127 503.268 315.053 503.481L306.886 505.1C306.489 505.179 306.179 505.489 306.1 505.886L304.481 514.053C304.268 515.127 302.732 515.127 302.519 514.053L300.9 505.886C300.821 505.489 300.511 505.179 300.114 505.1L291.947 503.481C290.873 503.268 290.873 501.732 291.947 501.519L300.114 499.9C300.511 499.821 300.821 499.511 300.9 499.114L302.519 490.947Z" fill="white"/>
</svg>
