<svg width="28" height="28" viewBox="0 0 28 28" fill="none" xmlns="http://www.w3.org/2000/svg">
<path d="M14 26.25C7.23451 26.25 1.75 20.7655 1.75 14C1.75 7.23451 7.23451 1.75 14 1.75C20.7655 1.75 26.25 7.23451 26.25 14C26.25 20.7655 20.7655 26.25 14 26.25Z" fill="#4CC9ED"/>
<path d="M12.8929 6.77513C13.3583 5.90829 14.6419 5.90829 15.1073 6.77513L16.8601 10.0396L20.576 10.7464C21.5259 10.9271 21.9099 12.0388 21.2625 12.7343L18.6276 15.5651L19.1116 19.3536C19.2334 20.3075 18.2068 21.0085 17.3166 20.5793L14.0001 18.9802L10.6836 20.5793C9.7934 21.0085 8.76679 20.3075 8.88865 19.3536L9.37264 15.5651L6.73766 12.7343C6.09034 12.0388 6.47429 10.9271 7.42419 10.7464L11.1401 10.0396L12.8929 6.77513Z" fill="#0C74F5"/>
</svg>
