<svg width="24" height="28" viewBox="0 0 24 28" fill="none" xmlns="http://www.w3.org/2000/svg">
<path d="M6.5445 0C6.14298 0 5.7804 0.240152 5.62374 0.60985L1.12374 11.2299L1.11952 11.24C0.99504 11.543 0.94688 11.8719 0.9793 12.1979C1.0117 12.5238 1.12368 12.8369 1.30538 13.1094C1.48708 13.382 1.73296 13.6057 2.02138 13.761C2.3098 13.9163 2.63196 13.9984 2.95952 14L2.9645 14H7.21878L3.58298 26.7252C3.45916 27.1586 3.64052 27.6212 4.02584 27.855C4.41114 28.0888 4.90522 28.0358 5.23234 27.7258L22.4124 11.4459L22.4184 11.4401C22.7038 11.1651 22.901 10.8114 22.9852 10.4241C23.0692 10.0368 23.0362 9.63318 22.8906 9.26458C22.7448 8.896 22.4928 8.579 22.1666 8.35386C21.8404 8.12872 21.4546 8.0056 21.0584 8.0001L21.0446 8H15.1625L18.439 1.44721C18.594 1.13723 18.5774 0.769086 18.3952 0.474268C18.213 0.179452 17.8911 0 17.5445 0H6.5445Z" fill="#4CC9ED"/>
</svg>
