<svg width="28" height="28" viewBox="0 0 28 28" fill="none" xmlns="http://www.w3.org/2000/svg">
<g clip-path="url(#clip0_105_29)">
<path d="M11.0304 2.42601e-06C8.10498 2.42601e-06 5.29936 1.16213 3.23076 3.23072C1.16218 5.29932 5.48898e-05 8.10492 5.48898e-05 11.0304C-0.00683379 13.2016 0.63482 15.3253 1.84277 17.1295L0.368936 21.0736C0.206134 21.5092 0.579476 21.9564 1.03722 21.8742L6.203 20.9446C7.69478 21.6722 9.33148 22.0536 10.9912 22.0606C12.6508 22.0676 14.2907 21.7 15.7886 20.9852C17.2864 20.2704 18.6037 19.2267 19.6421 17.932C20.6806 16.6373 21.4136 15.125 21.7864 13.5077C22.159 11.8904 22.162 10.2099 21.795 8.59124C21.428 6.97264 20.7006 5.45772 19.6666 4.15936C18.6328 2.861 17.3193 1.81268 15.824 1.09251C14.3286 0.372348 12.6901 -0.00109825 11.0304 2.42601e-06Z" fill="#0C74F5"/>
<path d="M19.0004 10C21.3872 10 23.6764 10.9482 25.3644 12.636C27.0522 14.3239 28.0004 16.6131 28.0004 19C28.006 20.7716 27.4824 22.5044 26.4968 23.9764L27.6314 27.0128C27.7942 27.4486 27.421 27.8958 26.9632 27.8134L22.9392 27.0894C21.722 27.683 20.3866 27.9942 19.0324 28C17.6782 28.0056 16.3402 27.7056 15.118 27.1224C13.8959 26.5392 12.8211 25.6876 11.9738 24.6312C11.1265 23.575 10.5285 22.341 10.2243 21.0214C9.92016 19.7018 9.91774 18.3305 10.2172 17.0099C10.5166 15.6892 11.1102 14.4531 11.9538 13.3937C12.7973 12.3344 13.8691 11.479 15.0891 10.8914C16.3092 10.3038 17.6462 9.9991 19.0004 10Z" fill="#4CC9ED"/>
</g>
<defs>
<clipPath id="clip0_105_29">
<rect width="28" height="28" fill="white"/>
</clipPath>
</defs>
</svg>
