<svg width="28" height="28" viewBox="0 0 28 28" fill="none" xmlns="http://www.w3.org/2000/svg">
<path d="M2.92254 4C1.2716 4 0 5.38074 0 7V21C0 22.6192 1.2716 24 2.92254 24H25.0774C26.7284 24 28 22.6192 28 21V7C28 5.38074 26.7284 4 25.0774 4H2.92254Z" fill="#0C74F5"/>
<path fill-rule="evenodd" clip-rule="evenodd" d="M8.23258 2C6.58166 2 5.31006 3.38074 5.31006 5V23C5.31006 24.6192 6.58166 26 8.23258 26H19.7678C21.4188 26 22.6904 24.6192 22.6904 23V5C22.6904 3.38074 21.4188 2 19.7678 2H8.23258Z" fill="#4CC9ED"/>
<path d="M11.2383 17.7359V10.2204C11.2383 9.66126 11.7527 9.32574 12.1553 9.59416L17.6354 13.3519C17.7326 13.4248 17.8115 13.5194 17.8659 13.6281C17.9202 13.7368 17.9485 13.8566 17.9485 13.9782C17.9485 14.0997 17.9202 14.2196 17.8659 14.3283C17.8115 14.437 17.7326 14.5315 17.6354 14.6045L12.1553 18.4517C11.7527 18.6306 11.2383 18.2951 11.2383 17.7359Z" fill="#0C74F5"/>
</svg>
