<svg width="28" height="28" viewBox="0 0 28 28" fill="none" xmlns="http://www.w3.org/2000/svg">
<g clip-path="url(#clip0_105_19)">
<path d="M14 28C21.732 28 28 21.732 28 14C28 6.26801 21.732 0 14 0C6.26801 0 0 6.26801 0 14C0 21.732 6.26801 28 14 28Z" fill="#4CC9ED"/>
<path d="M14 15C16.7614 15 19 12.7614 19 10C19 7.23858 16.7614 5 14 5C11.2386 5 9 7.23858 9 10C9 12.7614 11.2386 15 14 15Z" fill="#0C74F5"/>
<path d="M22.4856 21C20.468 18.5569 17.4157 16.9999 13.9999 16.9999C10.584 16.9999 7.53174 18.5569 5.51416 21C7.53174 23.443 10.584 25 13.9999 25C17.4157 25 20.468 23.443 22.4856 21Z" fill="#0C74F5"/>
</g>
<defs>
<clipPath id="clip0_105_19">
<rect width="28" height="28" fill="white"/>
</clipPath>
</defs>
</svg>
