<svg width="28" height="28" viewBox="0 0 28 28" fill="none" xmlns="http://www.w3.org/2000/svg">
<g clip-path="url(#clip0_105_36)">
<path fill-rule="evenodd" clip-rule="evenodd" d="M0.245117 14.5713V4C0.245117 1.79086 4.27456 0 9.24512 0C14.2157 0 18.2451 1.79086 18.2451 4V6.94108C15.7736 7.02236 13.4522 7.50176 11.6207 8.31576C10.6154 8.76254 9.6471 9.35932 8.89628 10.1483C8.1332 10.9501 7.5 12.063 7.5 13.4287V18.4966C3.34596 18.1353 0.245117 16.5084 0.245117 14.5713Z" fill="#4CC9ED"/>
<path fill-rule="evenodd" clip-rule="evenodd" d="M10 13.4287V24C10 26.2 14 28 19 28C24 28 28 26.2 28 24V13.4287C28 11.2196 23.9706 9.42871 19 9.42871C14.0294 9.42871 10 11.2196 10 13.4287Z" fill="#4CC9ED"/>
<path d="M9.24487 5.86261C12.7157 5.86261 15.5293 5.05347 15.5293 4.05533C15.5293 3.05721 12.7157 2.24805 9.24487 2.24805C5.77409 2.24805 2.96045 3.05721 2.96045 4.05533C2.96045 5.05347 5.77409 5.86261 9.24487 5.86261Z" fill="#0C74F5"/>
<path d="M18.9997 15.2913C22.4706 15.2913 25.2842 14.4822 25.2842 13.484C25.2842 12.4859 22.4706 11.6768 18.9997 11.6768C15.529 11.6768 12.7153 12.4859 12.7153 13.484C12.7153 14.4822 15.529 15.2913 18.9997 15.2913Z" fill="#0C74F5"/>
<path fill-rule="evenodd" clip-rule="evenodd" d="M28 17.0771C27.9498 17.2693 27.8262 17.5025 27.5686 17.7744C27.1984 18.1649 26.6036 18.5741 25.7716 18.9453C24.1106 19.6864 21.722 20.1788 18.9998 20.1788C16.2776 20.1788 13.8891 19.6864 12.2281 18.9453C11.3961 18.5741 10.8011 18.1649 10.431 17.7744C10.174 17.5031 10.0504 17.2704 10 17.0785V20.5944C10.3766 20.8268 10.7826 21.038 11.2095 21.2284C13.2604 22.1434 16.0115 22.6788 18.9998 22.6788C21.9882 22.6788 24.7392 22.1434 26.7902 21.2284C27.2172 21.0378 27.6234 20.8266 28 20.5942V17.0771Z" fill="#0C74F5"/>
<path fill-rule="evenodd" clip-rule="evenodd" d="M8.40782 10.7345C7.92112 11.4068 7.55902 12.232 7.50656 13.1888C5.19776 13.024 3.10066 12.5341 1.45459 11.7997C1.02773 11.6093 0.621689 11.3981 0.245117 11.1658V7.64984C0.295535 7.84172 0.419091 8.07442 0.676161 8.34568C1.04627 8.7362 1.64117 9.14542 2.4732 9.51662C3.96164 10.1807 6.0343 10.6452 8.40782 10.7345Z" fill="#0C74F5"/>
</g>
<defs>
<clipPath id="clip0_105_36">
<rect width="28" height="28" fill="white"/>
</clipPath>
</defs>
</svg>
