<svg width="22" height="24" viewBox="0 0 22 24" fill="none" xmlns="http://www.w3.org/2000/svg">
<g clip-path="url(#clip0_5_17)">
<path opacity="0.21" d="M16.3683 23.2844C17.0307 23.3323 17.7124 22.9878 18.046 22.4186C18.3845 21.8493 18.3603 21.0935 17.9832 20.5481C17.3546 19.6488 15.6576 19.5292 15.0049 20.4907C14.27 21.5766 15.0774 23.1888 16.3683 23.2844Z" stroke="black" stroke-opacity="0.2" stroke-width="1.5" stroke-miterlimit="10"/>
<path opacity="0.21" d="M7.15782 3.89109C6.58247 3.89109 6.01196 3.91976 5.45112 4.02979C4.98211 4.12069 4.54215 4.28813 4.27622 4.70909C4.16502 4.8861 4.08767 5.10136 4.05384 5.30709C3.92813 6.08684 4.16018 6.76613 4.69686 7.35453C5.08366 7.77549 5.53329 8.10558 6.05547 8.33998C6.19568 8.40216 6.32622 8.47392 6.46643 8.5409C6.64531 8.62702 6.73235 8.7801 6.69852 8.97623C6.64531 9.25367 6.58247 9.53115 6.42293 9.77512C6.18118 10.1435 5.83788 10.3827 5.43175 10.5453C4.95795 10.7319 4.49864 10.7271 4.0248 10.5262C3.57033 10.33 3.1352 10.1004 2.73873 9.80382C2.23107 9.42112 1.8056 8.96189 1.49133 8.40696C1.0707 7.67502 0.891809 6.88093 0.925655 6.04376C0.944993 5.57496 1.03686 5.1205 1.1819 4.67561C1.30761 4.2929 1.47683 3.9389 1.68473 3.59447C2.17305 2.77646 2.83543 2.13543 3.65737 1.65705C4.42127 1.21695 5.23837 0.982542 6.11347 0.972973C7.39474 0.963407 8.67598 0.963407 9.95721 0.972973C10.7018 0.977758 11.4464 1.01603 12.1909 1.03995C12.9258 1.06387 13.6656 1.09735 14.4005 1.10692C15.6865 1.12127 16.9726 1.13562 18.2539 1.12127C18.8341 1.1117 19.4191 1.03995 19.9993 0.982542C20.1685 0.968188 20.3329 0.920352 20.4973 0.886865C20.7922 0.829459 20.9372 0.896432 21.0629 1.15954C21.4062 1.86754 21.3482 2.56119 20.9566 3.22613C20.5746 3.87195 19.9896 4.26899 19.3031 4.53687C18.6938 4.77607 18.0557 4.84306 17.4126 4.8861C16.6535 4.93872 15.8993 4.89087 15.1451 4.79998C14.884 4.7665 14.8308 4.82392 14.8066 5.08223C14.7583 5.55583 14.6954 6.02942 14.6422 6.50779C14.5842 6.97659 14.531 7.45019 14.4778 7.91902C14.4633 8.03382 14.4633 8.14862 14.4391 8.26346C14.415 8.38302 14.4633 8.41653 14.5745 8.43087C14.884 8.47392 15.1934 8.45481 15.5028 8.4261C16.1555 8.36869 16.7744 8.1869 17.3884 7.98121C17.5915 7.91422 17.7946 7.84724 18.0025 7.80419C18.075 7.78986 18.1765 7.8329 18.2394 7.88075C18.5585 8.13429 18.6938 8.47392 18.7083 8.87099C18.7277 9.38764 18.631 9.87078 18.3361 10.3061C18.1185 10.6314 17.8236 10.8754 17.4754 11.0572C16.8179 11.3968 16.1072 11.5164 15.3723 11.5164C15.087 11.5164 14.8018 11.5021 14.5165 11.4925C14.328 11.4877 14.3038 11.5116 14.2893 11.6982C14.2651 11.9756 14.2458 12.2531 14.2119 12.5306C14.1104 13.4347 14.0137 14.334 13.8928 15.2382C13.7913 16.0227 13.6366 16.8025 13.4045 17.5631C13.2884 17.941 13.1772 18.3189 13.037 18.6873C12.8291 19.247 12.5439 19.7684 12.2151 20.2659C11.7558 20.9596 11.1949 21.5671 10.5229 22.0694C9.85567 22.5621 9.12561 22.9353 8.29885 23.0931C7.76217 23.1936 7.22066 23.2127 6.68885 23.0931C5.87658 22.9018 5.17553 22.5143 4.67752 21.8255C4.40193 21.4427 4.20855 21.0218 4.09251 20.5625C3.89909 19.8019 3.89909 19.0413 4.05867 18.2759C4.19888 17.6062 4.44544 16.9747 4.77423 16.3671C5.13199 15.707 5.56713 15.1042 6.05547 14.535C6.53411 13.9753 7.05628 13.4538 7.62679 12.985C8.12963 12.5784 8.64697 12.1861 9.15945 11.7843C9.37703 11.6169 9.59458 11.4494 9.80733 11.2724C9.91854 11.1815 9.91371 11.1624 9.817 11.0572C9.67679 10.9041 9.52691 10.7606 9.4012 10.5931C9.11595 10.2152 8.99507 9.53115 9.28516 9.09582C9.46407 8.82315 9.71546 8.63656 10.0201 8.52656C10.0974 8.49786 10.1748 8.47872 10.2521 8.45958C10.4746 8.40216 10.5471 8.32564 10.5713 8.10081C10.6389 7.45976 10.7791 6.83309 10.9725 6.22078C11.1224 5.74241 11.3062 5.27358 11.4754 4.80478C11.514 4.69475 11.5672 4.58472 11.6107 4.47469C11.6397 4.39816 11.6252 4.34555 11.5285 4.33118C11.4077 4.31684 11.2917 4.2977 11.1708 4.28333C10.5471 4.20201 9.92821 4.10635 9.30449 4.04416C8.59377 3.96761 7.87821 3.91976 7.16266 3.85758C7.16266 3.86715 7.16266 3.88152 7.15782 3.89109ZM10.1119 13.9609C10.0974 13.9514 10.0781 13.9466 10.0636 13.937C9.90887 14.0805 9.74933 14.2145 9.60428 14.3675C9.09178 14.9177 8.6228 15.5013 8.19731 16.1232C7.74767 16.7786 7.34637 17.4674 7.06595 18.2137C6.9209 18.5964 6.80486 18.9887 6.83389 19.4001C6.87256 19.9071 7.09495 20.2181 7.64613 20.3664C7.87821 20.4286 8.0958 20.352 8.28434 20.2229C8.60827 20.0028 8.80652 19.6775 8.97573 19.3331C9.18365 18.9073 9.34803 18.4672 9.4544 18.008C9.60428 17.3526 9.75416 16.6972 9.86534 16.0323C9.96688 15.4391 10.0152 14.8411 10.0878 14.2431C10.0974 14.1523 10.1023 14.0566 10.1119 13.9609Z" stroke="black" stroke-opacity="0.2" stroke-width="1.5" stroke-miterlimit="10"/>
<path d="M6.54382 3.33136C5.96844 3.33136 5.39793 3.36007 4.83708 3.47007C4.36811 3.56096 3.92814 3.72841 3.66222 4.14939C3.55101 4.32638 3.47364 4.54164 3.43981 4.74736C3.3141 5.52711 3.54618 6.20641 4.08286 6.79481C4.46965 7.21579 4.91929 7.54585 5.44146 7.78025C5.58168 7.84244 5.71222 7.91419 5.85243 7.98118C6.03131 8.0673 6.11835 8.22038 6.08448 8.4165C6.03131 8.69398 5.96844 8.97142 5.8089 9.21539C5.56717 9.58373 5.22388 9.82293 4.81775 9.98558C4.34394 10.1722 3.88461 10.1674 3.4108 9.96644C2.95632 9.77032 2.52118 9.54068 2.12472 9.2441C1.61706 8.86139 1.19159 8.40216 0.877323 7.84724C0.456689 7.11533 0.277797 6.32121 0.311641 5.48404C0.330982 5.01524 0.422843 4.56078 0.567891 4.11588C0.693598 3.73318 0.862818 3.37918 1.07072 3.03476C1.55904 2.21673 2.22142 1.57571 3.04335 1.09733C3.80727 0.657222 4.62437 0.418035 5.49947 0.41325C6.78071 0.403681 8.06197 0.403681 9.34321 0.41325C10.0878 0.418035 10.8324 0.456302 11.5769 0.480222C12.3118 0.504142 13.0516 0.537628 13.7865 0.547195C15.0725 0.561545 16.3586 0.575899 17.6399 0.561545C18.2201 0.551979 18.8051 0.480222 19.3853 0.422816C19.5545 0.408465 19.7189 0.360628 19.8833 0.327142C20.1782 0.269737 20.3232 0.336708 20.4489 0.599816C20.7922 1.30782 20.7342 2.00146 20.3426 2.66641C19.9606 3.31222 19.3756 3.70927 18.689 3.97718C18.0798 4.21635 17.4416 4.28333 16.7986 4.32638C16.0395 4.37899 15.2853 4.33115 14.531 4.24028C14.2699 4.20678 14.2168 4.26419 14.1926 4.5225C14.1442 4.9961 14.0814 5.4697 14.0282 5.94807C13.9702 6.4169 13.917 6.89047 13.8638 7.3593C13.8493 7.4741 13.8493 7.5889 13.8251 7.70373C13.801 7.82333 13.8493 7.85681 13.9605 7.87115C14.2699 7.91419 14.5794 7.89508 14.8888 7.86638C15.5415 7.80896 16.1604 7.62718 16.7744 7.42148C16.9775 7.3545 17.1805 7.28755 17.3885 7.24447C17.461 7.23013 17.5625 7.27318 17.6254 7.32102C17.9445 7.57456 18.0798 7.91419 18.0943 8.31127C18.1137 8.82792 18.017 9.31108 17.7221 9.74641C17.5045 10.0717 17.2096 10.3157 16.8614 10.4975C16.2039 10.8371 15.4932 10.9567 14.7583 10.9567C14.473 10.9567 14.1878 10.9423 13.9025 10.9328C13.7139 10.928 13.6898 10.9519 13.6753 11.1385C13.6511 11.4159 13.6318 11.6934 13.5979 11.9708C13.4964 12.875 13.3997 13.7743 13.2788 14.6785C13.1773 15.463 13.0225 16.2427 12.7905 17.0034C12.6744 17.3813 12.5632 17.7592 12.423 18.1276C12.2151 18.6873 11.9299 19.2087 11.6011 19.7062C11.1418 20.3999 10.5809 21.0074 9.90889 21.5097C9.24167 22.0024 8.51161 22.3755 7.68485 22.5334C7.14817 22.6339 6.60666 22.653 6.07482 22.5334C5.26255 22.3421 4.5615 21.9546 4.06352 21.2657C3.78793 20.883 3.59452 20.462 3.47848 20.0028C3.28509 19.2422 3.28509 18.4816 3.44464 17.7162C3.58485 17.0464 3.83144 16.415 4.1602 15.8074C4.51799 15.1473 4.95313 14.5445 5.44146 13.9752C5.9201 13.4155 6.44228 12.8941 7.01279 12.4253C7.51563 12.0187 8.03294 11.6264 8.54545 11.2246C8.76303 11.0571 8.98058 10.8897 9.19333 10.7127C9.30454 10.6218 9.29968 10.6027 9.203 10.4975C9.06279 10.3444 8.91291 10.2008 8.7872 10.0334C8.50194 9.65552 8.38107 8.97142 8.67116 8.5361C8.85004 8.26342 9.10146 8.07687 9.40605 7.96684C9.48342 7.93813 9.56076 7.91899 9.63813 7.89985C9.86052 7.84244 9.93306 7.76591 9.95723 7.54108C10.0249 6.90004 10.1651 6.27336 10.3585 5.66105C10.5084 5.18268 10.6922 4.71385 10.8614 4.24505C10.9 4.13502 10.9532 4.02499 10.9967 3.91496C11.0257 3.83844 11.0112 3.78582 10.9145 3.77145C10.7937 3.75711 10.6776 3.73798 10.5568 3.72361C9.93306 3.64228 9.31421 3.54662 8.69049 3.48444C7.97977 3.40788 7.26421 3.36007 6.54865 3.29785C6.54865 3.30742 6.54382 3.31699 6.54382 3.33136ZM9.49309 13.4012C9.47859 13.3916 9.45925 13.3868 9.44472 13.3773C9.29001 13.5208 9.13046 13.6547 8.98542 13.8078C8.47291 14.3579 8.00394 14.9416 7.57847 15.5635C7.12883 16.2188 6.72753 16.9077 6.44711 17.654C6.30207 18.0367 6.18603 18.4289 6.21503 18.8403C6.2537 19.3474 6.47612 19.6584 7.02729 19.8067C7.25938 19.8689 7.47693 19.7923 7.66551 19.6631C7.98944 19.4431 8.18765 19.1178 8.3569 18.7734C8.56478 18.3476 8.72916 17.9075 8.83554 17.4483C8.98542 16.7929 9.1353 16.1375 9.2465 15.4726C9.34805 14.8794 9.39638 14.2814 9.46892 13.6834C9.48342 13.5926 9.48826 13.4969 9.49309 13.4012Z" fill="white"/>
<path d="M15.9816 22.9592C16.644 23.007 17.3257 22.6626 17.6593 22.0933C17.9978 21.524 17.9736 20.7682 17.5965 20.2229C16.9679 19.3235 15.2709 19.2039 14.6182 20.1655C13.8833 21.2466 14.6907 22.8635 15.9816 22.9592Z" fill="white"/>
</g>
<defs>
<clipPath id="clip0_5_17">
<rect width="22" height="24" fill="white"/>
</clipPath>
</defs>
</svg>
